<svg width="539" height="192" viewBox="0 0 539 192" fill="none" xmlns="http://www.w3.org/2000/svg">
    <path
        d="M242 111.68C243.6 111.68 245.04 111.52 246.32 111.2C247.6 110.88 248.533 110.533 249.12 110.16V101.04L241.2 101.84C239.013 102 237.333 102.48 236.16 103.28C235.04 104.027 234.48 105.147 234.48 106.64C234.48 108.187 235.093 109.413 236.32 110.32C237.547 111.227 239.44 111.68 242 111.68ZM241.6 79.04C246.827 79.04 250.987 80.16 254.08 82.4C257.173 84.5867 258.72 88.0533 258.72 92.8V111.2C258.72 112.48 258.4 113.493 257.76 114.24C257.173 114.987 256.4 115.653 255.44 116.24C253.947 117.093 252.053 117.787 249.76 118.32C247.467 118.907 244.88 119.2 242 119.2C236.667 119.2 232.48 118.187 229.44 116.16C226.4 114.08 224.88 111.013 224.88 106.96C224.88 103.387 226 100.667 228.24 98.8C230.533 96.88 233.84 95.7067 238.16 95.28L249.04 94.16V92.72C249.04 90.5867 248.293 89.04 246.8 88.08C245.36 87.12 243.307 86.64 240.64 86.64C238.56 86.64 236.533 86.9067 234.56 87.44C232.587 87.9733 230.827 88.6133 229.28 89.36C228.747 88.9333 228.267 88.3467 227.84 87.6C227.413 86.8533 227.2 86.08 227.2 85.28C227.2 83.36 228.267 81.9467 230.4 81.04C231.893 80.3467 233.627 79.84 235.6 79.52C237.627 79.2 239.627 79.04 241.6 79.04ZM276.919 90.32V82.64H292.999C293.212 83.0133 293.425 83.5467 293.639 84.24C293.905 84.88 294.039 85.6267 294.039 86.48C294.039 87.8133 293.719 88.8 293.079 89.44C292.492 90.0267 291.639 90.32 290.519 90.32H276.919ZM278.439 78.8V89.12H268.999V78.4C268.999 75.04 269.665 72.32 270.999 70.24C272.385 68.1067 274.279 66.56 276.679 65.6C279.132 64.5867 281.905 64.08 284.999 64.08C288.465 64.08 291.105 64.5333 292.919 65.44C294.732 66.3467 295.639 67.7067 295.639 69.52C295.639 70.32 295.452 71.0667 295.079 71.76C294.759 72.4 294.359 72.9333 293.879 73.36C292.865 72.9333 291.719 72.5867 290.439 72.32C289.212 72.0533 287.905 71.92 286.519 71.92C283.692 71.92 281.639 72.4533 280.359 73.52C279.079 74.5867 278.439 76.3467 278.439 78.8ZM268.999 86.32H278.839V117.84C278.412 118 277.799 118.133 276.999 118.24C276.199 118.4 275.319 118.48 274.359 118.48C272.545 118.48 271.185 118.16 270.279 117.52C269.425 116.827 268.999 115.627 268.999 113.92V86.32ZM304.174 104.08L303.774 97.2L325.214 94C325.054 91.9733 324.281 90.2133 322.894 88.72C321.508 87.2267 319.481 86.48 316.814 86.48C314.094 86.48 311.828 87.44 310.014 89.36C308.201 91.2267 307.268 93.92 307.214 97.44L307.454 101.6C307.934 105.013 309.241 107.52 311.374 109.12C313.561 110.72 316.308 111.52 319.614 111.52C321.854 111.52 323.934 111.2 325.854 110.56C327.774 109.867 329.294 109.12 330.414 108.32C331.161 108.8 331.748 109.413 332.174 110.16C332.654 110.853 332.894 111.627 332.894 112.48C332.894 113.867 332.281 115.067 331.054 116.08C329.828 117.04 328.174 117.787 326.094 118.32C324.014 118.853 321.641 119.12 318.974 119.12C314.868 119.12 311.214 118.373 308.014 116.88C304.868 115.333 302.388 113.04 300.574 110C298.814 106.96 297.934 103.173 297.934 98.64C297.934 95.3867 298.441 92.5333 299.454 90.08C300.468 87.6267 301.828 85.6 303.534 84C305.294 82.3467 307.321 81.12 309.614 80.32C311.908 79.4667 314.308 79.04 316.814 79.04C320.334 79.04 323.401 79.76 326.014 81.2C328.681 82.5867 330.761 84.5333 332.254 87.04C333.801 89.5467 334.574 92.4267 334.574 95.68C334.574 97.1733 334.174 98.2933 333.374 99.04C332.628 99.7333 331.561 100.16 330.174 100.32L304.174 104.08ZM342.591 96.88H352.431V106.32C352.431 108.08 352.937 109.333 353.951 110.08C355.017 110.827 356.511 111.2 358.431 111.2C359.284 111.2 360.191 111.093 361.151 110.88C362.164 110.667 363.017 110.4 363.711 110.08C364.084 110.507 364.431 111.013 364.751 111.6C365.071 112.187 365.231 112.907 365.231 113.76C365.231 115.307 364.484 116.587 362.991 117.6C361.551 118.613 359.284 119.12 356.191 119.12C351.977 119.12 348.644 118.187 346.191 116.32C343.791 114.4 342.591 111.307 342.591 107.04V96.88ZM348.591 88.72V80.96H364.271C364.484 81.3333 364.697 81.8667 364.911 82.56C365.177 83.2533 365.311 83.9733 365.311 84.72C365.311 86.0533 364.991 87.0667 364.351 87.76C363.711 88.4 362.884 88.72 361.871 88.72H348.591ZM352.431 99.04H342.591V70.24C343.017 70.08 343.631 69.92 344.431 69.76C345.284 69.6 346.164 69.52 347.071 69.52C348.937 69.52 350.297 69.8667 351.151 70.56C352.004 71.2 352.431 72.3733 352.431 74.08V99.04ZM391.873 86.96C388.673 86.96 385.979 88 383.793 90.08C381.659 92.16 380.593 95.2 380.593 99.2C380.593 103.147 381.633 106.133 383.713 108.16C385.793 110.187 388.486 111.2 391.793 111.2C393.766 111.2 395.419 110.96 396.753 110.48C398.139 109.947 399.339 109.387 400.353 108.8C401.153 109.28 401.766 109.867 402.193 110.56C402.673 111.2 402.913 112 402.913 112.96C402.913 114.773 401.819 116.267 399.633 117.44C397.446 118.56 394.566 119.12 390.993 119.12C386.939 119.12 383.366 118.4 380.273 116.96C377.233 115.467 374.833 113.227 373.073 110.24C371.366 107.253 370.513 103.573 370.513 99.2C370.513 94.6667 371.419 90.9067 373.233 87.92C375.099 84.9333 377.553 82.72 380.593 81.28C383.686 79.7867 387.073 79.04 390.753 79.04C394.273 79.04 397.099 79.6533 399.233 80.88C401.366 82.1067 402.433 83.6267 402.433 85.44C402.433 86.24 402.219 86.9867 401.793 87.68C401.366 88.3733 400.859 88.9333 400.273 89.36C399.206 88.72 398.006 88.16 396.673 87.68C395.339 87.2 393.739 86.96 391.873 86.96ZM426.141 111.68C427.741 111.68 429.181 111.52 430.461 111.2C431.741 110.88 432.674 110.533 433.261 110.16V101.04L425.341 101.84C423.154 102 421.474 102.48 420.301 103.28C419.181 104.027 418.621 105.147 418.621 106.64C418.621 108.187 419.234 109.413 420.461 110.32C421.687 111.227 423.581 111.68 426.141 111.68ZM425.741 79.04C430.967 79.04 435.127 80.16 438.221 82.4C441.314 84.5867 442.861 88.0533 442.861 92.8V111.2C442.861 112.48 442.541 113.493 441.901 114.24C441.314 114.987 440.541 115.653 439.581 116.24C438.087 117.093 436.194 117.787 433.901 118.32C431.607 118.907 429.021 119.2 426.141 119.2C420.807 119.2 416.621 118.187 413.581 116.16C410.541 114.08 409.021 111.013 409.021 106.96C409.021 103.387 410.141 100.667 412.381 98.8C414.674 96.88 417.981 95.7067 422.301 95.28L433.181 94.16V92.72C433.181 90.5867 432.434 89.04 430.941 88.08C429.501 87.12 427.447 86.64 424.781 86.64C422.701 86.64 420.674 86.9067 418.701 87.44C416.727 87.9733 414.967 88.6133 413.421 89.36C412.887 88.9333 412.407 88.3467 411.981 87.6C411.554 86.8533 411.341 86.08 411.341 85.28C411.341 83.36 412.407 81.9467 414.541 81.04C416.034 80.3467 417.767 79.84 419.741 79.52C421.767 79.2 423.767 79.04 425.741 79.04ZM487.939 93.28V101.04H478.099V93.68C478.099 91.3333 477.433 89.6267 476.099 88.56C474.766 87.44 472.979 86.88 470.739 86.88C469.086 86.88 467.593 87.0933 466.259 87.52C464.979 87.8933 463.833 88.3467 462.819 88.88V101.04H452.979V88.24C452.979 86.96 453.246 85.92 453.779 85.12C454.313 84.2667 455.113 83.4933 456.179 82.8C457.779 81.7333 459.833 80.8533 462.339 80.16C464.899 79.4133 467.726 79.04 470.819 79.04C476.206 79.04 480.393 80.24 483.379 82.64C486.419 85.04 487.939 88.5867 487.939 93.28ZM452.979 97.12H462.819V117.84C462.393 118 461.779 118.133 460.979 118.24C460.179 118.4 459.299 118.48 458.339 118.48C456.526 118.48 455.166 118.16 454.259 117.52C453.406 116.827 452.979 115.627 452.979 113.92V97.12ZM478.099 97.12H487.939V117.84C487.566 118 486.953 118.133 486.099 118.24C485.299 118.4 484.446 118.48 483.539 118.48C481.673 118.48 480.286 118.16 479.379 117.52C478.526 116.827 478.099 115.627 478.099 113.92V97.12Z"
        fill="#14B8AE" />
    <path opacity="0.2"
        d="M102.984 155.344C102.984 155.344 35.4062 117.5 35.4062 71.547C35.4062 63.4231 38.2208 55.5505 43.3712 49.2681C48.5214 42.9857 55.6894 38.6819 63.6553 37.0887C71.6212 35.4955 79.8929 36.7115 87.0635 40.5298C94.2337 44.3478 99.8598 50.5325 102.984 58.0313C106.109 50.5325 111.735 44.3478 118.905 40.5298C126.076 36.7115 134.348 35.4955 142.313 37.0887C150.279 38.6819 157.447 42.9857 162.598 49.2681C167.748 55.5505 170.562 63.4231 170.562 71.547C170.562 117.5 102.984 155.344 102.984 155.344Z"
        fill="#14B8AE" />
    <path
        d="M69.6685 98.8485L75.9531 89.3877L93.0503 115.067C93.5417 115.82 94.2131 116.439 95.0035 116.867C95.7942 117.295 96.6791 117.519 97.5781 117.519C98.4773 117.519 99.3622 117.295 100.153 116.867C100.943 116.439 101.615 115.82 102.106 115.067L111.297 101.281H124.609C126.043 101.281 127.418 100.712 128.432 99.6978C129.446 98.6839 130.016 97.3087 130.016 95.875C130.016 94.4413 129.446 93.0662 128.432 92.0523C127.418 91.0384 126.043 90.4687 124.609 90.4687H108.391C107.492 90.4606 106.606 90.6791 105.815 91.1044C105.023 91.5296 104.352 92.1478 103.863 92.9015L97.5781 102.363L80.4809 76.6829C79.9897 75.9298 79.3183 75.3114 78.5276 74.8832C77.7372 74.455 76.8523 74.2308 75.9531 74.2308C75.0541 74.2308 74.1692 74.455 73.3785 74.8832C72.5881 75.3114 71.9167 75.9298 71.4253 76.6829L62.2349 90.4687H38.1094C36.6756 90.4687 35.3005 91.0384 34.2866 92.0523C33.2727 93.0662 32.7031 94.4413 32.7031 95.875C32.7031 97.3087 33.2727 98.6839 34.2866 99.6978C35.3005 100.712 36.6756 101.281 38.1094 101.281H65.1407C66.0392 101.289 66.9251 101.071 67.7165 100.646C68.5079 100.22 69.1792 99.6023 69.6685 98.8485Z"
        fill="#14B8AE" />
    <path
        d="M135.422 31C129.127 31 122.919 32.4656 117.289 35.2807C111.658 38.0957 106.761 42.183 102.984 47.2187C97.8783 40.4107 90.7597 35.3819 82.6366 32.8443C74.5137 30.3069 65.7982 30.3896 57.7248 33.0807C49.6514 35.7719 42.6295 40.9351 37.6535 47.8386C32.6776 54.7424 30 63.0368 30 71.547C30 72.5606 30 73.5742 30.0676 74.5202C30.1548 75.9608 30.8072 77.3084 31.8829 78.2701C32.9586 79.2321 34.3706 79.7301 35.8117 79.6563C36.5221 79.6133 37.2171 79.4304 37.8567 79.1181C38.4963 78.8058 39.0679 78.3705 39.5388 77.8368C40.0097 77.303 40.3706 76.6816 40.6008 76.0083C40.8309 75.3348 40.9258 74.6223 40.8801 73.9121C40.8125 73.1687 40.8125 72.3578 40.8125 71.547C40.8062 64.673 43.1817 58.0092 47.5348 52.6895C51.8881 47.3695 57.9497 43.7223 64.6889 42.3681C71.4282 41.0138 78.4282 42.0366 84.4985 45.2618C90.5687 48.487 95.334 53.7159 97.9836 60.0586C98.3909 61.0501 99.0839 61.8984 99.9742 62.4951C100.865 63.0919 101.912 63.4106 102.984 63.4106C104.056 63.4106 105.104 63.0919 105.995 62.4951C106.885 61.8984 107.578 61.0501 107.985 60.0586C110.635 53.7159 115.4 48.487 121.47 45.2618C127.541 42.0366 134.541 41.0138 141.28 42.3681C148.019 43.7223 154.081 47.3695 158.434 52.6895C162.787 58.0092 165.162 64.673 165.156 71.547C165.156 108.85 115.149 141.626 102.984 149.059C95.821 144.734 75.6152 131.624 60.2073 113.918C59.7371 113.381 59.1657 112.942 58.5256 112.626C57.8855 112.31 57.1896 112.123 56.4774 112.076C55.039 111.981 53.6215 112.462 52.5373 113.411C51.453 114.361 50.7903 115.703 50.6953 117.142C50.6003 118.58 51.0804 119.997 52.0306 121.082C72.3038 144.193 99.2 159.399 100.349 160.074C101.156 160.518 102.063 160.751 102.984 160.751C103.906 160.751 104.812 160.518 105.62 160.074C118.052 152.806 129.713 144.293 140.423 134.665C164.007 113.445 175.969 92.2258 175.969 71.547C175.969 60.7932 171.697 50.4799 164.093 42.876C156.489 35.2719 146.176 31 135.422 31Z"
        fill="#14B8AE" />
</svg>