<svg width="539" height="192" viewBox="0 0 539 192" fill="none" xmlns="http://www.w3.org/2000/svg">
    <path
        d="M222 107.944C223.28 107.944 224.432 107.816 225.456 107.56C226.48 107.304 227.227 107.027 227.696 106.728V99.432L221.36 100.072C219.611 100.2 218.267 100.584 217.328 101.224C216.432 101.821 215.984 102.717 215.984 103.912C215.984 105.149 216.475 106.131 217.456 106.856C218.437 107.581 219.952 107.944 222 107.944ZM221.68 81.832C225.861 81.832 229.189 82.728 231.664 84.52C234.139 86.2693 235.376 89.0427 235.376 92.84V107.56C235.376 108.584 235.12 109.395 234.608 109.992C234.139 110.589 233.52 111.123 232.752 111.592C231.557 112.275 230.043 112.829 228.208 113.256C226.373 113.725 224.304 113.96 222 113.96C217.733 113.96 214.384 113.149 211.952 111.528C209.52 109.864 208.304 107.411 208.304 104.168C208.304 101.309 209.2 99.1333 210.992 97.64C212.827 96.104 215.472 95.1653 218.928 94.824L227.632 93.928V92.776C227.632 91.0693 227.035 89.832 225.84 89.064C224.688 88.296 223.045 87.912 220.912 87.912C219.248 87.912 217.627 88.1253 216.048 88.552C214.469 88.9787 213.061 89.4907 211.824 90.088C211.397 89.7467 211.013 89.2773 210.672 88.68C210.331 88.0827 210.16 87.464 210.16 86.824C210.16 85.288 211.013 84.1573 212.72 83.432C213.915 82.8773 215.301 82.472 216.88 82.216C218.501 81.96 220.101 81.832 221.68 81.832ZM259.023 88.168C256.463 88.168 254.308 89 252.559 90.664C250.852 92.328 249.999 94.76 249.999 97.96C249.999 101.117 250.831 103.507 252.495 105.128C254.159 106.749 256.314 107.56 258.959 107.56C260.538 107.56 261.86 107.368 262.927 106.984C264.036 106.557 264.996 106.109 265.807 105.64C266.447 106.024 266.938 106.493 267.279 107.048C267.663 107.56 267.855 108.2 267.855 108.968C267.855 110.419 266.98 111.613 265.231 112.552C263.482 113.448 261.178 113.896 258.319 113.896C255.076 113.896 252.218 113.32 249.743 112.168C247.311 110.973 245.391 109.181 243.983 106.792C242.618 104.403 241.935 101.459 241.935 97.96C241.935 94.3333 242.66 91.3253 244.111 88.936C245.604 86.5467 247.567 84.776 249.999 83.624C252.474 82.4293 255.183 81.832 258.127 81.832C260.943 81.832 263.204 82.3227 264.911 83.304C266.618 84.2853 267.471 85.5013 267.471 86.952C267.471 87.592 267.3 88.1893 266.959 88.744C266.618 89.2987 266.212 89.7467 265.743 90.088C264.89 89.576 263.93 89.128 262.863 88.744C261.796 88.36 260.516 88.168 259.023 88.168ZM274.025 73.704C274.025 72.4667 274.451 71.4213 275.305 70.568C276.201 69.7147 277.31 69.288 278.633 69.288C279.998 69.288 281.086 69.7147 281.897 70.568C282.75 71.4213 283.177 72.4667 283.177 73.704C283.177 74.8987 282.75 75.944 281.897 76.84C281.086 77.6933 279.998 78.12 278.633 78.12C277.31 78.12 276.201 77.6933 275.305 76.84C274.451 75.944 274.025 74.8987 274.025 73.704ZM274.665 96.104H282.601V112.872C282.259 113 281.769 113.107 281.129 113.192C280.489 113.32 279.785 113.384 279.017 113.384C277.566 113.384 276.478 113.128 275.753 112.616C275.027 112.061 274.665 111.101 274.665 109.736V96.104ZM282.601 100.136H274.665V82.984C275.006 82.856 275.497 82.7493 276.137 82.664C276.819 82.536 277.545 82.472 278.312 82.472C279.806 82.472 280.894 82.7493 281.577 83.304C282.259 83.816 282.601 84.776 282.601 86.184V100.136ZM291.607 96.104L299.479 96.488V112.872C299.137 113 298.647 113.107 298.007 113.192C297.367 113.32 296.663 113.384 295.895 113.384C294.444 113.384 293.356 113.128 292.631 112.616C291.948 112.061 291.607 111.101 291.607 109.736V96.104ZM299.479 100.52L291.607 100.136V71.4C291.905 71.3147 292.375 71.208 293.015 71.08C293.697 70.952 294.401 70.888 295.127 70.888C296.663 70.888 297.772 71.1653 298.455 71.72C299.137 72.232 299.479 73.1707 299.479 74.536V100.52ZM328.066 106.344V86.248H335.938V107.176C335.938 108.115 335.724 108.904 335.298 109.544C334.914 110.141 334.274 110.717 333.378 111.272C332.354 111.955 330.946 112.552 329.154 113.064C327.404 113.619 325.399 113.896 323.138 113.896C319.767 113.896 316.823 113.341 314.306 112.232C311.831 111.08 309.911 109.331 308.546 106.984C307.18 104.595 306.498 101.587 306.498 97.96C306.498 94.248 307.18 91.1973 308.546 88.808C309.954 86.4187 311.831 84.6693 314.178 83.56C316.524 82.408 319.127 81.832 321.986 81.832C323.564 81.832 324.994 82.024 326.274 82.408C327.596 82.792 328.663 83.24 329.474 83.752V90.472C328.791 89.832 327.895 89.2773 326.786 88.808C325.676 88.3387 324.396 88.104 322.946 88.104C321.367 88.104 319.938 88.4453 318.658 89.128C317.378 89.768 316.375 90.8347 315.65 92.328C314.924 93.7787 314.562 95.6773 314.562 98.024C314.562 101.352 315.33 103.784 316.866 105.32C318.402 106.856 320.471 107.624 323.074 107.624C324.226 107.624 325.207 107.496 326.018 107.24C326.828 106.984 327.511 106.685 328.066 106.344ZM335.938 87.848L328.066 87.912V71.4C328.364 71.3147 328.834 71.208 329.474 71.08C330.156 70.952 330.86 70.888 331.586 70.888C333.122 70.888 334.231 71.1653 334.914 71.72C335.596 72.232 335.938 73.1707 335.938 74.536V87.848ZM347.74 101.864L347.42 96.36L364.572 93.8C364.444 92.1787 363.825 90.7707 362.716 89.576C361.606 88.3813 359.985 87.784 357.852 87.784C355.676 87.784 353.862 88.552 352.412 90.088C350.961 91.5813 350.214 93.736 350.172 96.552L350.364 99.88C350.748 102.611 351.793 104.616 353.5 105.896C355.249 107.176 357.446 107.816 360.092 107.816C361.884 107.816 363.548 107.56 365.084 107.048C366.62 106.493 367.836 105.896 368.732 105.256C369.329 105.64 369.798 106.131 370.14 106.728C370.524 107.283 370.716 107.901 370.716 108.584C370.716 109.693 370.225 110.653 369.244 111.464C368.262 112.232 366.94 112.829 365.276 113.256C363.612 113.683 361.713 113.896 359.58 113.896C356.294 113.896 353.372 113.299 350.812 112.104C348.294 110.867 346.31 109.032 344.86 106.6C343.452 104.168 342.748 101.139 342.748 97.512C342.748 94.9093 343.153 92.6267 343.964 90.664C344.774 88.7013 345.862 87.08 347.228 85.8C348.636 84.4773 350.257 83.496 352.092 82.856C353.926 82.1733 355.846 81.832 357.852 81.832C360.668 81.832 363.121 82.408 365.212 83.56C367.345 84.6693 369.009 86.2267 370.204 88.232C371.441 90.2373 372.06 92.5413 372.06 95.144C372.06 96.3387 371.74 97.2347 371.1 97.832C370.502 98.3867 369.649 98.728 368.54 98.856L347.74 101.864ZM392.681 113.896C395.625 113.896 398.227 113.299 400.489 112.104C402.793 110.867 404.585 109.053 405.865 106.664C407.187 104.275 407.849 101.288 407.849 97.704C407.849 93.992 407.145 90.9627 405.737 88.616C404.371 86.2693 402.473 84.5627 400.041 83.496C397.609 82.3867 394.835 81.832 391.721 81.832C389.417 81.832 387.347 82.1093 385.513 82.664C383.678 83.176 382.142 83.7947 380.905 84.52C380.009 85.0747 379.369 85.672 378.985 86.312C378.601 86.952 378.409 87.7627 378.409 88.744V109.736H386.281V89.512C386.921 89.128 387.689 88.808 388.585 88.552C389.481 88.2533 390.526 88.104 391.721 88.104C393.257 88.104 394.643 88.424 395.881 89.064C397.118 89.704 398.078 90.728 398.761 92.136C399.486 93.5013 399.849 95.3573 399.849 97.704C399.849 101.075 399.102 103.571 397.609 105.192C396.115 106.771 394.089 107.56 391.529 107.56C389.993 107.56 388.649 107.304 387.497 106.792C386.387 106.237 385.427 105.619 384.617 104.936V111.72C385.513 112.275 386.643 112.765 388.009 113.192C389.417 113.661 390.974 113.896 392.681 113.896ZM386.281 107.56L378.409 107.496V121.256C378.409 122.621 378.75 123.581 379.433 124.136C380.158 124.691 381.246 124.968 382.697 124.968C383.465 124.968 384.169 124.904 384.809 124.776C385.449 124.691 385.939 124.584 386.281 124.456V107.56ZM422.468 89.96V98.728H414.596V89.32C414.596 88.2533 414.852 87.3573 415.364 86.632C415.876 85.864 416.601 85.16 417.54 84.52C418.82 83.752 420.441 83.112 422.404 82.6C424.367 82.088 426.479 81.832 428.74 81.832C432.751 81.832 434.756 83.0693 434.756 85.544C434.756 86.1413 434.671 86.696 434.5 87.208C434.329 87.6773 434.116 88.104 433.86 88.488C433.433 88.4027 432.9 88.3387 432.26 88.296C431.62 88.2107 430.937 88.168 430.212 88.168C428.676 88.168 427.225 88.3387 425.86 88.68C424.537 88.9787 423.407 89.4053 422.468 89.96ZM414.596 96.104L422.468 96.488V112.872C422.127 113 421.636 113.107 420.996 113.192C420.356 113.32 419.652 113.384 418.884 113.384C417.433 113.384 416.345 113.128 415.62 112.616C414.937 112.061 414.596 111.101 414.596 109.736V96.104ZM442.552 101.864L442.232 96.36L459.384 93.8C459.256 92.1787 458.637 90.7707 457.528 89.576C456.419 88.3813 454.797 87.784 452.664 87.784C450.488 87.784 448.675 88.552 447.224 90.088C445.773 91.5813 445.027 93.736 444.984 96.552L445.176 99.88C445.56 102.611 446.605 104.616 448.312 105.896C450.061 107.176 452.259 107.816 454.904 107.816C456.696 107.816 458.36 107.56 459.896 107.048C461.432 106.493 462.648 105.896 463.544 105.256C464.141 105.64 464.611 106.131 464.952 106.728C465.336 107.283 465.528 107.901 465.528 108.584C465.528 109.693 465.037 110.653 464.056 111.464C463.075 112.232 461.752 112.829 460.088 113.256C458.424 113.683 456.525 113.896 454.392 113.896C451.107 113.896 448.184 113.299 445.624 112.104C443.107 110.867 441.123 109.032 439.672 106.6C438.264 104.168 437.56 101.139 437.56 97.512C437.56 94.9093 437.965 92.6267 438.776 90.664C439.587 88.7013 440.675 87.08 442.04 85.8C443.448 84.4773 445.069 83.496 446.904 82.856C448.739 82.1733 450.659 81.832 452.664 81.832C455.48 81.832 457.933 82.408 460.024 83.56C462.157 84.6693 463.821 86.2267 465.016 88.232C466.253 90.2373 466.872 92.5413 466.872 95.144C466.872 96.3387 466.552 97.2347 465.912 97.832C465.315 98.3867 464.461 98.728 463.352 98.856L442.552 101.864ZM499.653 92.072V99.368H491.781V92.968C491.781 91.304 491.269 90.088 490.245 89.32C489.264 88.5093 488.005 88.104 486.469 88.104C485.36 88.104 484.336 88.2747 483.397 88.616C482.501 88.9147 481.733 89.2773 481.093 89.704V99.368H473.221V89.192C473.221 88.168 473.434 87.336 473.861 86.696C474.288 86.0133 474.928 85.3947 475.781 84.84C477.104 83.944 478.725 83.2187 480.645 82.664C482.608 82.1093 484.634 81.832 486.725 81.832C488.816 81.832 490.736 82.152 492.485 82.792C494.234 83.432 495.664 84.3707 496.773 85.608C497.072 85.864 497.349 86.12 497.605 86.376C497.861 86.632 498.074 86.9307 498.245 87.272C498.629 87.912 498.949 88.6587 499.205 89.512C499.504 90.3227 499.653 91.176 499.653 92.072ZM518.149 92.712V99.368H510.277V92.968C510.277 91.304 509.808 90.088 508.869 89.32C507.93 88.5093 506.672 88.104 505.093 88.104C503.941 88.104 502.81 88.3387 501.701 88.808C500.634 89.2773 499.717 89.896 498.949 90.664L494.981 85.864C496.304 84.7547 497.861 83.816 499.653 83.048C501.445 82.2373 503.578 81.832 506.053 81.832C508.314 81.832 510.362 82.1947 512.197 82.92C514.032 83.6453 515.482 84.8187 516.549 86.44C517.616 88.0613 518.149 90.152 518.149 92.712ZM473.221 96.296H481.093V112.872C480.752 113 480.261 113.107 479.621 113.192C478.981 113.32 478.277 113.384 477.509 113.384C476.058 113.384 474.97 113.128 474.245 112.616C473.562 112.061 473.221 111.101 473.221 109.736V96.296ZM491.781 96.296H499.653V112.872C499.312 113 498.8 113.107 498.117 113.192C497.477 113.32 496.794 113.384 496.069 113.384C494.576 113.384 493.488 113.128 492.805 112.616C492.122 112.061 491.781 111.101 491.781 109.736V96.296ZM510.277 96.296H518.149V112.872C517.85 113 517.36 113.107 516.677 113.192C516.037 113.32 515.354 113.384 514.629 113.384C513.136 113.384 512.026 113.128 511.301 112.616C510.618 112.061 510.277 111.101 510.277 109.736V96.296Z"
        fill="#14B8AE" />
    <path opacity="0.2"
        d="M102.984 155.344C102.984 155.344 35.4062 117.5 35.4062 71.547C35.4062 63.4231 38.2208 55.5505 43.3712 49.2681C48.5214 42.9857 55.6894 38.6819 63.6553 37.0887C71.6212 35.4955 79.8929 36.7115 87.0635 40.5298C94.2337 44.3478 99.8598 50.5325 102.984 58.0313C106.109 50.5325 111.735 44.3478 118.905 40.5298C126.076 36.7115 134.348 35.4955 142.313 37.0887C150.279 38.6819 157.447 42.9857 162.598 49.2681C167.748 55.5505 170.562 63.4231 170.562 71.547C170.562 117.5 102.984 155.344 102.984 155.344Z"
        fill="#14B8AE" />
    <path
        d="M69.6685 98.8485L75.9531 89.3877L93.0503 115.067C93.5417 115.82 94.2131 116.439 95.0035 116.867C95.7942 117.295 96.6791 117.519 97.5781 117.519C98.4773 117.519 99.3622 117.295 100.153 116.867C100.943 116.439 101.615 115.82 102.106 115.067L111.297 101.281H124.609C126.043 101.281 127.418 100.712 128.432 99.6978C129.446 98.6839 130.016 97.3087 130.016 95.875C130.016 94.4413 129.446 93.0662 128.432 92.0523C127.418 91.0384 126.043 90.4687 124.609 90.4687H108.391C107.492 90.4606 106.606 90.6791 105.815 91.1044C105.023 91.5296 104.352 92.1478 103.863 92.9015L97.5781 102.363L80.4809 76.6829C79.9897 75.9298 79.3183 75.3114 78.5276 74.8832C77.7372 74.455 76.8523 74.2308 75.9531 74.2308C75.0541 74.2308 74.1692 74.455 73.3785 74.8832C72.5881 75.3114 71.9167 75.9298 71.4253 76.6829L62.2349 90.4687H38.1094C36.6756 90.4687 35.3005 91.0384 34.2866 92.0523C33.2727 93.0662 32.7031 94.4413 32.7031 95.875C32.7031 97.3087 33.2727 98.6839 34.2866 99.6978C35.3005 100.712 36.6756 101.281 38.1094 101.281H65.1407C66.0392 101.289 66.9251 101.071 67.7165 100.646C68.5079 100.22 69.1792 99.6023 69.6685 98.8485Z"
        fill="#14B8AE" />
    <path
        d="M135.422 31C129.127 31 122.919 32.4656 117.289 35.2807C111.658 38.0957 106.761 42.183 102.984 47.2187C97.8783 40.4107 90.7597 35.3819 82.6366 32.8443C74.5137 30.3069 65.7982 30.3896 57.7248 33.0807C49.6514 35.7719 42.6295 40.9351 37.6535 47.8386C32.6776 54.7424 30 63.0368 30 71.547C30 72.5606 30 73.5742 30.0676 74.5202C30.1548 75.9608 30.8072 77.3084 31.8829 78.2701C32.9586 79.2321 34.3706 79.7301 35.8117 79.6563C36.5221 79.6133 37.2171 79.4304 37.8567 79.1181C38.4963 78.8058 39.0679 78.3705 39.5388 77.8367C40.0097 77.303 40.3706 76.6816 40.6008 76.0083C40.8309 75.3348 40.9258 74.6223 40.8801 73.9121C40.8125 73.1687 40.8125 72.3578 40.8125 71.547C40.8062 64.673 43.1817 58.0092 47.5348 52.6895C51.8881 47.3695 57.9497 43.7223 64.6889 42.3681C71.4282 41.0138 78.4282 42.0366 84.4985 45.2618C90.5687 48.487 95.334 53.7159 97.9836 60.0586C98.3909 61.0501 99.0839 61.8984 99.9742 62.4951C100.865 63.0919 101.912 63.4106 102.984 63.4106C104.056 63.4106 105.104 63.0919 105.995 62.4951C106.885 61.8984 107.578 61.0501 107.985 60.0586C110.635 53.7159 115.4 48.487 121.47 45.2618C127.541 42.0366 134.541 41.0138 141.28 42.3681C148.019 43.7223 154.081 47.3695 158.434 52.6895C162.787 58.0092 165.162 64.673 165.156 71.547C165.156 108.85 115.149 141.626 102.984 149.059C95.821 144.734 75.6152 131.624 60.2073 113.918C59.7371 113.381 59.1657 112.942 58.5256 112.626C57.8855 112.31 57.1896 112.123 56.4774 112.076C55.039 111.981 53.6215 112.462 52.5373 113.411C51.453 114.361 50.7903 115.703 50.6953 117.142C50.6003 118.58 51.0804 119.997 52.0306 121.082C72.3038 144.193 99.2 159.399 100.349 160.074C101.156 160.518 102.063 160.751 102.984 160.751C103.906 160.751 104.812 160.518 105.62 160.074C118.052 152.806 129.713 144.293 140.423 134.665C164.007 113.445 175.969 92.2258 175.969 71.547C175.969 60.7932 171.697 50.4799 164.093 42.876C156.489 35.2719 146.176 31 135.422 31Z"
        fill="#14B8AE" />
</svg>